<svg width="36" height="33" viewBox="0 0 36 33" fill="none" xmlns="http://www.w3.org/2000/svg">
<path d="M21.5926 14.1931H31.4741C31.8002 14.1931 32.113 14.0764 32.3436 13.8687C32.5742 13.6609 32.7037 13.3792 32.7037 13.0854C32.7037 10.4306 31.5331 7.88461 29.4494 6.00742C27.3656 4.13022 24.5395 3.07562 21.5926 3.07562C21.2665 3.07562 20.9537 3.19233 20.7231 3.40007C20.4925 3.60782 20.363 3.88958 20.363 4.18337V13.0854C20.363 13.3792 20.4925 13.6609 20.7231 13.8687C20.9537 14.0764 21.2665 14.1931 21.5926 14.1931V14.1931Z" fill="#000"/>
<path d="M31.3408 16.4219H19.2667C19.0896 16.4219 18.9143 16.3905 18.7508 16.3294C18.5872 16.2684 18.4386 16.1789 18.3134 16.0661C18.1882 15.9534 18.0889 15.8195 18.0212 15.6721C17.9534 15.5248 17.9185 15.3668 17.9185 15.2074V4.30338C17.9197 4.13026 17.8802 3.95888 17.8026 3.80049C17.725 3.6421 17.6112 3.50028 17.4685 3.38433C17.3258 3.26838 17.1575 3.18092 16.9746 3.1277C16.7917 3.07448 16.5984 3.05669 16.4074 3.07551C13.6263 3.34155 10.9856 4.31135 8.79064 5.87276C6.5957 7.43417 4.93619 9.52341 4.00402 11.8989C3.07186 14.2743 2.90511 16.839 3.52308 19.2962C4.14104 21.7535 5.51846 24.003 7.49606 25.7846C9.47366 27.5661 11.9707 28.807 14.6983 29.3637C17.4259 29.9204 20.2727 29.7702 22.9096 28.9305C25.5464 28.0907 27.8655 26.5957 29.5987 24.6183C31.3319 22.6409 32.4084 20.262 32.7037 17.7565C32.7202 17.5865 32.6972 17.4153 32.6361 17.2538C32.575 17.0922 32.4772 16.944 32.349 16.8184C32.2207 16.6928 32.0648 16.5927 31.8912 16.5244C31.7176 16.4562 31.5302 16.4212 31.3408 16.4219V16.4219Z" fill="#000"/>
</svg>
