<svg width="36" height="33" viewBox="0 0 36 33" fill="none" xmlns="http://www.w3.org/2000/svg">
<path d="M18.1111 3.20444C15.181 3.20444 12.3167 3.98719 9.88045 5.4537C7.44416 6.92022 5.54531 9.00464 4.42401 11.4434C3.30271 13.8821 3.00933 16.5656 3.58096 19.1545C4.1526 21.7435 5.56357 24.1216 7.63546 25.9881C9.70735 27.8546 12.3471 29.1257 15.2209 29.6407C18.0947 30.1557 21.0734 29.8914 23.7805 28.8812C26.4876 27.8711 28.8013 26.1604 30.4292 23.9656C32.0571 21.7708 32.9259 19.1905 32.9259 16.5508C32.9259 14.7981 32.5427 13.0626 31.7982 11.4434C31.0537 9.82411 29.9625 8.35282 28.5868 7.11349C27.2111 5.87417 25.5779 4.89109 23.7805 4.22037C21.9831 3.54965 20.0566 3.20444 18.1111 3.20444V3.20444ZM19.5926 21.8893C19.5926 22.2433 19.4365 22.5828 19.1587 22.8331C18.8809 23.0834 18.504 23.224 18.1111 23.224C17.7182 23.224 17.3414 23.0834 17.0636 22.8331C16.7857 22.5828 16.6296 22.2433 16.6296 21.8893V15.2162C16.6296 14.8622 16.7857 14.5227 17.0636 14.2724C17.3414 14.0221 17.7182 13.8815 18.1111 13.8815C18.504 13.8815 18.8809 14.0221 19.1587 14.2724C19.4365 14.5227 19.5926 14.8622 19.5926 15.2162V21.8893ZM18.1111 12.5469C17.8181 12.5469 17.5317 12.4686 17.288 12.322C17.0444 12.1753 16.8545 11.9669 16.7424 11.723C16.6303 11.4791 16.6009 11.2108 16.6581 10.9519C16.7153 10.693 16.8564 10.4552 17.0636 10.2685C17.2707 10.0819 17.5347 9.95476 17.8221 9.90326C18.1095 9.85176 18.4074 9.87819 18.6781 9.97921C18.9488 10.0802 19.1801 10.2513 19.3429 10.4708C19.5057 10.6902 19.5926 10.9483 19.5926 11.2123C19.5926 11.5662 19.4365 11.9057 19.1587 12.156C18.8809 12.4063 18.504 12.5469 18.1111 12.5469Z" fill="#000"/>
</svg>
