<svg width="37" height="26" viewBox="0 0 37 26" fill="none" xmlns="http://www.w3.org/2000/svg">
<path d="M2.09333 0.472656C1.71407 0.472656 1.4 0.584766 1.15111 0.808984C0.902223 1.0332 0.777779 1.31615 0.777779 1.65781V23.8875C0.777779 24.2078 0.902223 24.4801 1.15111 24.7043C1.4 24.9285 1.71407 25.0406 2.09333 25.0406H24.6356L36.3333 12.7727L24.6356 0.472656H2.09333ZM15.3911 4.79687C16.363 4.79687 17.1926 5.13854 17.88 5.82187C18.5674 6.50521 18.9467 7.40208 19.0178 8.5125C19.2074 8.7901 19.3022 9.06771 19.3022 9.34531C19.3022 9.79375 19.1007 10.1995 18.6978 10.5625C18.3896 11.5234 17.8919 12.2708 17.2044 12.8047V13.8617L17.24 13.8937C17.477 14.0219 17.8444 14.15 18.3422 14.2781C19.077 14.449 19.7763 14.6518 20.44 14.8867C20.9141 15.0576 21.317 15.3992 21.6489 15.9117C21.9333 16.3388 22.1704 16.8727 22.36 17.5133C22.5022 17.9617 22.6089 18.4422 22.68 18.9547L22.7511 19.5633L22.0756 19.6273C21.4356 19.6701 20.6533 19.7021 19.7289 19.7234C18.4489 19.7661 16.997 19.7875 15.3733 19.7875C13.7496 19.7875 12.2978 19.7661 11.0178 19.7234C10.0933 19.7021 9.31111 19.6701 8.67111 19.6273L7.99556 19.5633L8.06667 18.9547C8.16148 18.4422 8.26815 17.9617 8.38667 17.5133C8.5763 16.8727 8.81333 16.3388 9.09778 15.9117C9.45333 15.3992 9.8563 15.0576 10.3067 14.8867C10.9941 14.6518 11.7052 14.449 12.44 14.2781C12.9141 14.15 13.2696 14.0219 13.5067 13.8937L13.5778 13.8617V12.8047C12.8904 12.2708 12.3807 11.5234 12.0489 10.5625C11.6696 10.1995 11.48 9.79375 11.48 9.34531C11.48 9.06771 11.5748 8.7901 11.7644 8.5125C11.8119 7.40208 12.1793 6.50521 12.8667 5.82187C13.5541 5.13854 14.3956 4.79687 15.3911 4.79687Z" fill="black"/>
</svg>
